<?xml version="1.0" encoding="UTF-8" standalone="no"?>
<svg
   xmlns:dc="http://purl.org/dc/elements/1.1/"
   xmlns:cc="http://creativecommons.org/ns#"
   xmlns:rdf="http://www.w3.org/1999/02/22-rdf-syntax-ns#"
   xmlns:svg="http://www.w3.org/2000/svg"
   xmlns="http://www.w3.org/2000/svg"
   xmlns:sodipodi="http://sodipodi.sourceforge.net/DTD/sodipodi-0.dtd"
   xmlns:inkscape="http://www.inkscape.org/namespaces/inkscape"
   viewBox="0 0 512 512"
   version="1.1"
   id="svg4"
   sodipodi:docname="checkmark.svg"
   inkscape:version="0.92.2 (5c3e80d, 2017-08-06)">
  <metadata
     id="metadata10">
    <rdf:RDF>
      <cc:Work
         rdf:about="">
        <dc:format>image/svg+xml</dc:format>
        <dc:type
           rdf:resource="http://purl.org/dc/dcmitype/StillImage" />
      </cc:Work>
    </rdf:RDF>
  </metadata>
  <defs
     id="defs8" />
  <sodipodi:namedview
     pagecolor="#ffffff"
     bordercolor="#666666"
     borderopacity="1"
     objecttolerance="10"
     gridtolerance="10"
     guidetolerance="10"
     inkscape:pageopacity="0"
     inkscape:pageshadow="2"
     inkscape:window-width="1366"
     inkscape:window-height="705"
     id="namedview6"
     showgrid="false"
     inkscape:zoom="0.4609375"
     inkscape:cx="-96.542373"
     inkscape:cy="256"
     inkscape:window-x="-8"
     inkscape:window-y="-8"
     inkscape:window-maximized="1"
     inkscape:current-layer="svg4" />
  <path
     d="M186.301 339.893L96 249.461l-32 30.507L186.301 402 448 140.506 416 110z"
     id="path2" />
  <path
     style="fill:#e85555;stroke-width:2.16949153;fill-opacity:1"
     d="m 125.9709,339.41695 -59.925474,-60.20339 15.058564,-13.94692 15.058566,-13.94693 44.894734,44.85656 44.89473,44.85656 114.95656,-114.97192 114.95656,-114.97192 15.18688,15.18686 15.18685,15.18686 -129.06513,129.07882 c -70.98584,70.99334 -129.5629,129.07881 -130.17126,129.07881 -0.60836,0 -28.07258,-27.09153 -61.03158,-60.20339 z"
     id="path12"
     inkscape:connector-curvature="0" />
  <path
     style="fill:#e85555;fill-opacity:1;stroke-width:2.16949153"
     d="m 126.39387,338.92476 -59.342284,-59.0886 14.419969,-13.75418 14.41997,-13.75418 45.022805,44.88698 45.0228,44.88698 114.971,-114.95564 114.97099,-114.95565 14.63654,14.63654 14.63651,14.63653 -119.30828,119.45532 C 260.22433,326.61928 201.85572,384.343 196.13587,389.19376 l -10.39972,8.81959 z"
     id="path4511"
     inkscape:connector-curvature="0" />
  <path
     style="fill:#e85555;fill-opacity:1;stroke-width:2.16949153"
     d="M 125.85768,338.3322 66.904275,279.21356 81.3979,265.81197 l 14.493625,-13.4016 45.022805,44.8457 45.0228,44.84569 114.971,-114.95564 114.97099,-114.95565 14.65027,14.65682 14.65027,14.65681 -128.07394,127.97337 c -70.44067,70.38535 -129.0236,127.97338 -130.18429,127.97338 -1.16068,0 -28.63937,-26.60339 -61.06375,-59.11865 z"
     id="path4513"
     inkscape:connector-curvature="0" />
  <path
     style="fill:#e85555;fill-opacity:1;stroke-width:2.16949153"
     d="m 125.66803,338.27844 -59.14306,-59.1724 14.683278,-13.32509 14.683277,-13.32509 45.022805,44.82295 45.0228,44.82295 114.971,-114.95564 114.97099,-114.95565 14.64806,14.64807 14.64806,14.64807 -128.03613,127.98212 c -70.41987,70.39017 -129.0018,127.98212 -130.18207,127.98212 -1.18027,0 -28.76033,-26.62758 -61.28901,-59.17241 z"
     id="path4515"
     inkscape:connector-curvature="0" />
  <path
     style="fill:#e85555;fill-opacity:1;stroke-width:2.16949153"
     d=""
     id="path4517"
     inkscape:connector-curvature="0" />
</svg>
